<?xml version='1.0' encoding='UTF-8'?>
<svg xmlns="http://www.w3.org/2000/svg" xmlns:camphor="https://korintje.com" xmlns:cc="http://creativecommons.org/ns#" xmlns:dc="http://purl.org/dc/elements/1.1/" xmlns:inkscape="http://www.inkscape.org/namespaces/inkscape" xmlns:rdf="http://www.w3.org/1999/02/22-rdf-syntax-ns#" xmlns:sodipodi="http://sodipodi.sourceforge.net/DTD/sodipodi-0.dtd" height="345.6pt" id="svg1737" version="1.1" viewbox="0 0 460.8 345.6" width="460.8pt" sodipodi:docname="mod_test2.svg" inkscape:version="0.92.4 (5da689c313, 2019-01-14)">
  <sodipodi:namedview bordercolor="#666666" borderopacity="1" gridtolerance="10" guidetolerance="10" id="namedview1739" objecttolerance="10" pagecolor="#ffffff" showgrid="false" inkscape:current-layer="figure_1" inkscape:cx="328.44333" inkscape:cy="224.21978" inkscape:pagecheckerboard="true" inkscape:pageopacity="0" inkscape:pageshadow="2" inkscape:window-height="995" inkscape:window-maximized="1" inkscape:window-width="1920" inkscape:window-x="1920" inkscape:window-y="0" inkscape:zoom="0.86805553" />
  <defs id="defs1184">
    <style id="style1182" type="text/css">
		*{stroke-linecap:butt;stroke-linejoin:round;} 
		</style>
    <defs id="defs1081">
      <path d="M 34.1875,63.1875 20.796875,26.90625 h 26.8125 z m -5.578125,9.71875 h 11.1875 L 67.578125,0 h -10.25 L 50.6875,18.703125 H 17.828125 L 11.1875,0 H 0.78125 Z" id="DejaVuSans-65" style="stroke-linecap:butt;stroke-linejoin:round" inkscape:connector-curvature="0" />
      <path d="m 48.6875,27.296875 q 0,9.90625 -4.078125,15.546875 -4.078125,5.640625 -11.203125,5.640625 -7.140625,0 -11.21875,-5.640625 -4.078125,-5.640625 -4.078125,-15.546875 0,-9.90625 4.078125,-15.546875 4.078125,-5.640625 11.21875,-5.640625 7.125,0 11.203125,5.640625 4.078125,5.640625 4.078125,15.546875 z m -30.578125,19.09375 q 2.84375,4.875 7.15625,7.234375 Q 29.59375,56 35.59375,56 q 9.96875,0 16.1875,-7.90625 6.234375,-7.90625 6.234375,-20.796875 0,-12.890625 -6.234375,-20.8125 -6.21875,-7.90625 -16.1875,-7.90625 -6,0 -10.328125,2.375 -4.3125,2.375 -7.15625,7.25 V 0 h -9.03125 v 75.984375 h 9.03125 z" id="DejaVuSans-98" style="stroke-linecap:butt;stroke-linejoin:round" inkscape:connector-curvature="0" />
      <path d="M 8.5,21.578125 V 54.6875 h 8.984375 V 21.921875 q 0,-7.765625 3.015625,-11.65625 3.03125,-3.875 9.09375,-3.875 7.265625,0 11.484375,4.640625 4.234375,4.640625 4.234375,12.65625 v 31 h 8.984375 V 0 H 45.3125 V 8.40625 Q 42.046875,3.421875 37.71875,1 33.40625,-1.421875 27.6875,-1.421875 18.265625,-1.421875 13.375,4.4375 8.5,10.296875 8.5,21.578125 Z M 31.109375,56 Z" id="DejaVuSans-117" style="stroke-linecap:butt;stroke-linejoin:round" inkscape:connector-curvature="0" />
      <path d="m 18.109375,8.203125 v -29 H 9.078125 V 54.6875 h 9.03125 v -8.296875 q 2.84375,4.875 7.15625,7.234375 Q 29.59375,56 35.59375,56 q 9.96875,0 16.1875,-7.90625 6.234375,-7.90625 6.234375,-20.796875 0,-12.890625 -6.234375,-20.8125 -6.21875,-7.90625 -16.1875,-7.90625 -6,0 -10.328125,2.375 -4.3125,2.375 -7.15625,7.25 z M 48.6875,27.296875 q 0,9.90625 -4.078125,15.546875 -4.078125,5.640625 -11.203125,5.640625 -7.140625,0 -11.21875,-5.640625 -4.078125,-5.640625 -4.078125,-15.546875 0,-9.90625 4.078125,-15.546875 4.078125,-5.640625 11.21875,-5.640625 7.125,0 11.203125,5.640625 4.078125,5.640625 4.078125,15.546875 z" id="DejaVuSans-112" style="stroke-linecap:butt;stroke-linejoin:round" inkscape:connector-curvature="0" />
      <path d="M 11.71875,12.40625 H 22.015625 V 4 l -8,-15.625 H 7.71875 l 4,15.625 z" id="DejaVuSans-44" style="stroke-linecap:butt;stroke-linejoin:round" inkscape:connector-curvature="0" />
      <path d="M 37.109375,75.984375 V 68.5 h -8.59375 q -4.828125,0 -6.71875,-1.953125 -1.875,-1.953125 -1.875,-7.03125 V 54.6875 H 34.71875 V 47.703125 H 19.921875 V 0 h -9.03125 V 47.703125 H 2.296875 V 54.6875 h 8.59375 V 58.5 q 0,9.125 4.25,13.296875 4.25,4.1875 13.46875,4.1875 z" id="DejaVuSans-102" style="stroke-linecap:butt;stroke-linejoin:round" inkscape:connector-curvature="0" />
      <path d="m 9.078125,75.984375 h 9.03125 v -44.875 l 26.8125,23.578125 h 11.46875 l -29,-25.578125 L 57.625,0 H 45.90625 L 18.109375,26.703125 V 0 h -9.03125 z" id="DejaVuSans-107" style="stroke-linecap:butt;stroke-linejoin:round" inkscape:connector-curvature="0" />
    </defs>
  </defs>
  <metadata id="metadata1186">
    <camphor:script>import matplotlib
import matplotlib.pyplot as plt
import numpy as np

t = np.arange(0.0, 2.0, 0.01)
s = 1 + np.sin(8 * np.pi * t)
fig, ax = plt.subplots()

ax.plot(t, s)
ax.set(xlabel='time (s)', ylabel='voltage (mV)',  title='About as simple as it gets, folks')
ax.grid()

fig.savefig("temp.svg", transparent=True)</camphor:script>
    <rdf:RDF>
      <cc:Work rdf:about="">
        <dc:format>image/svg+xml</dc:format>
        <dc:type rdf:resource="http://purl.org/dc/dcmitype/StillImage" />
        <dc:title />
      </cc:Work>
    </rdf:RDF>
  </metadata>
  <defs id="defs1735">
    <clippath id="p82434c69f8">
      <rect height="266.112" width="357.12" x="57.6" y="41.472" />
    </clippath>
  </defs>
  <g id="layer2" style="display:inline;stroke-linecap:butt;stroke-linejoin:round;opacity:0.478" inkscape:groupmode="layer" inkscape:label="Layer 2">
    <rect height="142.55273" id="rect2074" style="stroke-linecap:butt;stroke-linejoin:round;fill:#00ffff" width="203.64676" x="188.1696" y="108.08382" />
  </g>
  </svg>